<?xml version="1.0" encoding="UTF-8" standalone="no"?>
<svg
   width="664.10223"
   height="173.16132"
   viewBox="0 -705 36691.073 9566.3427"
   version="1.1"
   id="svg12"
   xmlns:xlink="http://www.w3.org/1999/xlink"
   xmlns="http://www.w3.org/2000/svg"
   xmlns:svg="http://www.w3.org/2000/svg">
  <defs
     id="defs1">
    <path
       id="MJX-8-NCM-I-1D453"
       d="m 552,633 c 0,44 -43,72 -90,72 -62,0 -105,-40 -128,-119 -5,-18 -16,-69 -32,-153 h -65 c -22,0 -33,-1 -33,-22 0,-11 10,-16 31,-16 h 60 L 222,8 c -11,-57 -21,-99 -30,-127 -12,-37 -29,-56 -51,-56 -15,0 -27,4 -38,11 32,5 48,24 48,56 0,26 -13,39 -40,39 -34,0 -58,-30 -58,-64 0,-44 41,-72 88,-72 25,0 48,10 67,31 32,33 57,80 75,143 11,39 21,77 28,115 l 58,311 h 82 c 23,0 33,1 33,24 0,9 -10,14 -30,14 h -77 c 6,41 34,192 43,211 10,21 24,31 42,31 15,0 28,-4 39,-11 -31,-7 -47,-25 -47,-56 0,-26 13,-39 40,-39 34,0 58,30 58,64 z" />
    <path
       id="MJX-8-NCM-N-2061"
       d="" />
    <path
       id="MJX-8-NCM-SS-1D5C8"
       d="m 249,-11 c 63,0 115,23 157,68 42,45 63,100 63,163 0,64 -21,120 -62,168 -41,48 -94,73 -157,73 C 187,461 134,436 91,387 50,340 30,285 30,220 30,157 50,104 92,58 134,12 186,-11 249,-11 M 385,230 C 385,139 336,60 249,60 c -86,0 -135,79 -135,170 0,89 49,163 135,163 87,0 136,-72 136,-163 z" />
    <path
       id="MJX-8-NCM-SS-1D5CB"
       d="m 327,381 v 74 C 256,454 199,426 158,369 v 81 H 82 V 0 h 80 v 214 c 0,98 69,164 165,167 z" />
    <path
       id="MJX-8-NCM-SS-1D5C6"
       d="m 262,387 c 70,0 93,-33 93,-97 V 0 h 84 v 245 c 0,72 31,142 96,142 70,0 93,-33 93,-97 V 0 h 85 v 297 c 0,105 -46,158 -139,158 -61,0 -109,-25 -146,-76 -21,51 -63,76 -128,76 -55,0 -102,-23 -140,-68 v 63 H 81 V 0 h 85 v 245 c 0,73 30,142 96,142 z" />
    <path
       id="MJX-8-NCM-SS-1D5CE"
       d="m 237,51 c -56,0 -72,12 -72,64 V 444 H 81 V 111 c 0,-81 36,-122 108,-122 67,0 122,18 165,53 V 0 h 81 V 444 H 351 V 155 C 351,89 304,51 237,51 Z" />
    <path
       id="MJX-8-NCM-SS-1D5C5"
       d="m 79,0 h 79 V 694 H 79 Z" />
    <path
       id="MJX-8-NCM-SS-1D5C2"
       d="m 73,559 h 93 v 96 H 73 M 79,0 h 80 V 447 H 79 Z" />
    <path
       id="MJX-8-NCM-SS-1D5CC"
       d="m 360,130 c 0,35 -12,64 -36,89 l -3,4 c -27,24 -66,41 -116,50 -41,8 -67,17 -78,27 -11,10 -17,23 -17,38 0,38 26,57 79,57 50,0 97,-13 142,-40 l 13,73 c -47,22 -96,33 -145,33 -93,0 -166,-39 -166,-133 0,-63 52,-114 115,-128 31,-7 54,-12 70,-15 33,-8 65,-26 65,-62 C 283,80 254,59 195,59 142,59 91,76 41,110 L 28,34 c 59,-30 115,-45 168,-45 97,0 164,46 164,141 z" />
  </defs>
  <g
     stroke="#000000"
     fill="#000000"
     stroke-width="0"
     transform="matrix(10.513201,0,0,-10.513201,-557.19965,6706.7748)"
     id="g12">
    <g
       data-mml-node="math"
       data-latex="f\mathsf{ormulis}"
       data-semantic-type="appl"
       data-semantic-role="simple function"
       data-semantic-annotation="depth:1"
       data-semantic-id="3"
       data-semantic-children="0,1"
       data-semantic-content="2,0"
       data-semantic-attributes="latex:f\mathsf{ormulis}"
       data-semantic-owns="0 2 1"
       aria-level="0"
       data-speech-node="true"
       data-semantic-structure="(3 0 2 1)"
       id="g11">
      <g
         data-mml-node="mi"
         data-latex="f"
         data-semantic-type="identifier"
         data-semantic-role="simple function"
         data-semantic-font="italic"
         data-semantic-annotation="clearspeak:simple;nemeth:number;depth:2"
         data-semantic-id="0"
         data-semantic-parent="3"
         data-semantic-attributes="latex:f"
         data-semantic-operator="appl"
         aria-level="1"
         data-speech-node="true"
         id="g1">
        <use
           data-c="1D453"
           xlink:href="#MJX-8-NCM-I-1D453"
           id="use1"
           style="fill:#00599c;fill-opacity:1" />
      </g>
      <g
         data-mml-node="mo"
         data-semantic-type="punctuation"
         data-semantic-role="application"
         data-semantic-annotation="nemeth:number;depth:2"
         data-semantic-id="2"
         data-semantic-parent="3"
         data-semantic-added="true"
         data-semantic-operator="appl"
         aria-level="1"
         data-speech-node="true"
         transform="translate(552)"
         id="g2">
        <use
           data-c="2061"
           xlink:href="#MJX-8-NCM-N-2061"
           id="use2" />
      </g>
      <g
         data-mml-node="TeXAtom"
         data-mjx-texclass="ORD"
         data-latex="\mathsf{ormulis}"
         transform="translate(552)"
         id="g10">
        <g
           data-mml-node="mi"
           data-latex="ormulis"
           data-semantic-type="identifier"
           data-semantic-role="unknown"
           data-semantic-font="sans-serif"
           data-semantic-annotation="nemeth:number;depth:2"
           data-semantic-id="1"
           data-semantic-parent="3"
           data-semantic-attributes="latex:\mathsf{ormulis};texclass:ORD"
           aria-level="1"
           data-speech-node="true"
           id="g9">
          <use
             data-c="1D5C8"
             xlink:href="#MJX-8-NCM-SS-1D5C8"
             id="use3"
             style="fill:#659ad2;fill-opacity:1" />
          <use
             data-c="1D5CB"
             xlink:href="#MJX-8-NCM-SS-1D5CB"
             transform="translate(500)"
             id="use4"
             style="fill:#659ad2;fill-opacity:1" />
          <use
             data-c="1D5C6"
             xlink:href="#MJX-8-NCM-SS-1D5C6"
             transform="translate(842)"
             id="use5"
             style="fill:#659ad2;fill-opacity:1" />
          <use
             data-c="1D5CE"
             xlink:href="#MJX-8-NCM-SS-1D5CE"
             transform="translate(1636)"
             id="use6"
             style="fill:#659ad2;fill-opacity:1" />
          <use
             data-c="1D5C5"
             xlink:href="#MJX-8-NCM-SS-1D5C5"
             transform="translate(2153)"
             id="use7"
             style="fill:#659ad2;fill-opacity:1" />
          <use
             data-c="1D5C2"
             xlink:href="#MJX-8-NCM-SS-1D5C2"
             transform="translate(2392)"
             id="use8"
             style="fill:#659ad2;fill-opacity:1" />
          <use
             data-c="1D5CC"
             xlink:href="#MJX-8-NCM-SS-1D5CC"
             transform="translate(2631)"
             id="use9"
             style="fill:#659ad2;fill-opacity:1" />
        </g>
      </g>
    </g>
  </g>
</svg>
